<?xml version="1.0" encoding="UTF-8" standalone="no"?>
<svg
   xmlns:dc="http://purl.org/dc/elements/1.1/"
   xmlns:cc="http://creativecommons.org/ns#"
   xmlns:rdf="http://www.w3.org/1999/02/22-rdf-syntax-ns#"
   xmlns:svg="http://www.w3.org/2000/svg"
   xmlns="http://www.w3.org/2000/svg"
   id="svg8"
   version="1.1"
   viewBox="0 0 52.916665 52.916669"
   height="200"
   width="200">
  <defs
     id="defs2" />
  <metadata
     id="metadata5">
    <rdf:RDF>
      <cc:Work
         rdf:about="">
        <dc:format>image/svg+xml</dc:format>
        <dc:type
           rdf:resource="http://purl.org/dc/dcmitype/StillImage" />
        <dc:title></dc:title>
      </cc:Work>
    </rdf:RDF>
  </metadata>
  <g
     transform="translate(0,-244.0833)"
     id="layer1">
    <path
       id="rect4932"
       d="m 0,293.97845 c 17.550563,-9.8689 35.187851,-10.04761 52.916664,0 v 3.02152 H 0 Z"
       style="fill:#000000;fill-opacity:1;stroke-width:0;stroke-linecap:butt;stroke-linejoin:round;stroke-miterlimit:4;stroke-dasharray:none" />
    <path
       id="path4998"
       transform="matrix(0.26458333,0,0,0.26458333,0,244.0833)"
       d="M 99.869141 0.001953125 A 7.5761436 7.5761436 0 0 0 99.113281 0.052734375 A 7.5761436 7.5761436 0 0 0 92.453125 8.171875 A 7.5761436 7.5761436 0 0 0 93.326172 11.140625 C 71.393656 24.978581 52.14843 58.811701 52.148438 103.24805 C 52.148438 124.02475 56.680593 143.11467 63.630859 158.21875 C 73.546385 156.39264 83.549036 155.19287 93.373047 154.47656 C 107.85161 153.90894 122.31096 155.18203 136.47656 158.00781 C 143.37168 142.93692 147.86133 123.9283 147.86133 103.24805 C 147.86133 72.751494 138.79757 47.249899 126.02148 29.777344 C 110.15382 42.650188 104.17119 54.415332 100.00586 73.984375 C 99.403435 46.121498 107.05066 25.992499 115.97656 18.380859 C 112.96839 15.572857 109.8581 13.141226 106.6875 11.140625 A 7.5761436 7.5761436 0 0 0 107.58203 7.5761719 L 107.48828 6.390625 A 7.5761436 7.5761436 0 0 0 99.869141 0.001953125 z "
       style="fill:#000000;fill-opacity:1;stroke-width:0;stroke-linecap:butt;stroke-linejoin:round;stroke-miterlimit:4;stroke-dasharray:none" />
  </g>
</svg>
