<?xml version="1.0" encoding="UTF-8" standalone="no"?>
<svg
   xmlns:dc="http://purl.org/dc/elements/1.1/"
   xmlns:cc="http://creativecommons.org/ns#"
   xmlns:rdf="http://www.w3.org/1999/02/22-rdf-syntax-ns#"
   xmlns:svg="http://www.w3.org/2000/svg"
   xmlns="http://www.w3.org/2000/svg"
   id="svg8"
   version="1.1"
   viewBox="0 0 52.916665 52.916669"
   height="200"
   width="200">
  <defs
     id="defs2" />
  <metadata
     id="metadata5">
    <rdf:RDF>
      <cc:Work
         rdf:about="">
        <dc:format>image/svg+xml</dc:format>
        <dc:type
           rdf:resource="http://purl.org/dc/dcmitype/StillImage" />
        <dc:title></dc:title>
      </cc:Work>
    </rdf:RDF>
  </metadata>
  <g
     transform="translate(0,-244.0833)"
     id="layer1">
    <path
       id="rect4932"
       d="m 0,293.97845 c 17.550563,-9.8689 35.187851,-10.04761 52.916664,0 v 3.02152 H 0 Z"
       style="fill:#000000;fill-opacity:1;stroke-width:0;stroke-linecap:butt;stroke-linejoin:round;stroke-miterlimit:4;stroke-dasharray:none" />
    <path
       id="rect5119"
       transform="matrix(0.26458333,0,0,0.26458333,0,244.0833)"
       d="M 88.257812 -0.26367188 L 88.257812 21.701172 L 66.292969 21.701172 L 66.292969 45.199219 L 88.257812 45.199219 L 88.257812 57.152344 C 92.80093 60.614044 96.772377 64.745434 99.869141 69.4375 C 102.96401 64.611242 107.04609 60.476073 111.75195 57.052734 L 111.75195 45.199219 L 133.71875 45.199219 L 133.71875 21.701172 L 111.75195 21.701172 L 111.75195 -0.26367188 L 88.257812 -0.26367188 z "
       style="fill:#000000;fill-opacity:1;stroke:none;stroke-width:0;stroke-linecap:butt;stroke-linejoin:round;stroke-miterlimit:4;stroke-dasharray:none" />
    <path
       transform="matrix(0.26458333,0,0,0.26458333,0,244.0833)"
       id="path5123"
       d="m 146.86719,49.19587 c -0.55904,0.0063 -1.11359,0.03659 -1.66602,0.08789 -15.52368,1.441512 -38.05293,8.689204 -45.19531,29.784599 C 92.863493,57.972964 70.334238,50.725272 54.810547,49.28376 54.258116,49.232359 53.701616,49.20387 53.142578,49.197823 35.812507,49.001287 15.691843,62.377248 16.425781,92.46875 c 0.506836,20.78035 13.407479,47.26197 29.570313,69.74805 15.517169,-4.26936 31.677773,-6.59556 47.376953,-7.74024 20.488143,-0.80322 40.937303,2.0813 60.568363,7.8418 16.19686,-22.50775 29.13693,-49.0381 29.64453,-69.84961 0.73393,-30.091505 -19.38873,-43.469319 -36.71875,-43.27288 z"
       style="fill:#000000;stroke:none;stroke-width:0.99999994px;stroke-linecap:butt;stroke-linejoin:miter;stroke-opacity:1" />
  </g>
</svg>
