<?xml version="1.0" encoding="UTF-8" standalone="no"?>
<svg
   xmlns:dc="http://purl.org/dc/elements/1.1/"
   xmlns:cc="http://creativecommons.org/ns#"
   xmlns:rdf="http://www.w3.org/1999/02/22-rdf-syntax-ns#"
   xmlns:svg="http://www.w3.org/2000/svg"
   xmlns="http://www.w3.org/2000/svg"
   id="svg8"
   version="1.1"
   viewBox="0 0 52.916665 52.916669"
   height="200"
   width="200">
  <defs
     id="defs2" />
  <metadata
     id="metadata5">
    <rdf:RDF>
      <cc:Work
         rdf:about="">
        <dc:format>image/svg+xml</dc:format>
        <dc:type
           rdf:resource="http://purl.org/dc/dcmitype/StillImage" />
        <dc:title></dc:title>
      </cc:Work>
    </rdf:RDF>
  </metadata>
  <g
     transform="translate(0,-244.0833)"
     id="layer1">
    <path
       id="rect4932"
       d="m 0,293.97845 c 17.550563,-9.8689 35.187851,-10.04761 52.916664,0 v 3.02152 H 0 Z"
       style="fill:#000000;fill-opacity:1;stroke-width:0;stroke-linecap:butt;stroke-linejoin:round;stroke-miterlimit:4;stroke-dasharray:none" />
    <path
       id="path5067"
       transform="matrix(0.26458333,0,0,0.26458333,0,244.0833)"
       d="M 73.652344 -0.25195312 C 71.882203 0.0080264625 71.399546 9.9817651 69.017578 11.720703 C 58.745227 19.219928 51.811727 33.831889 50.001953 42.679688 C 48.344222 50.784203 24.496095 79.297503 24.496094 86.621094 C 24.496093 93.852691 41.416626 104.0453 48.740234 97.984375 C 50.935977 96.167216 58.833639 83.70185 64.513672 83.955078 C 76.234591 84.4779 78.035156 68.943359 78.035156 68.943359 C 79.07244 73.372059 80.120774 88.466356 79.296875 96.46875 C 78.331294 105.84726 66.85712 132.6247 49.974609 161.16406 C 64.263126 157.55733 79.011416 155.52372 93.373047 154.47656 C 112.88261 153.7117 132.35468 156.30051 151.12109 161.52148 C 144.37317 141.46643 132.12162 103.37121 130.81445 87.125 C 129.04669 65.154153 127.0275 34.597613 117.68359 21.970703 C 111.08242 13.050187 98.43134 8.4090688 86.898438 7.2558594 C 81.924383 6.7585113 77.804235 3.3357353 74.246094 0 C 74.031868 -0.20083819 73.835462 -0.27884757 73.652344 -0.25195312 z M 67.679688 30.736328 C 69.699992 30.862564 71.972656 34.082031 71.972656 34.082031 C 67.805776 35.912948 64.649314 41.72194 63.007812 43.931641 C 62.595307 39.279307 65.154305 32.756637 67.679688 30.736328 z "
       style="fill:#000000;stroke:none;stroke-width:0.99999994px;stroke-linecap:butt;stroke-linejoin:miter;stroke-opacity:1" />
    <path
       id="path5080"
       transform="matrix(0.26458333,0,0,0.26458333,0,244.0833)"
       d="M 110.16797 9.9609375 C 124.88865 18.806151 130.33076 38.352009 131.67773 54.878906 C 132.68659 85.160486 140.06658 114.59849 149.27344 143.44141 C 149.68579 143.35567 150.09493 143.27632 150.51367 143.17969 C 168.94896 135.351 173.24023 126.76367 173.24023 126.76367 C 164.4014 111.61136 161.37165 81.054395 153.54297 55.042969 C 146.33248 31.085579 124.77542 13.566771 110.16797 9.9609375 z "
       style="fill:#000000;stroke:none;stroke-width:0.99999994px;stroke-linecap:butt;stroke-linejoin:miter;stroke-opacity:1" />
  </g>
</svg>
