<?xml version="1.0" encoding="UTF-8" standalone="no"?>
<svg
   xmlns:dc="http://purl.org/dc/elements/1.1/"
   xmlns:cc="http://creativecommons.org/ns#"
   xmlns:rdf="http://www.w3.org/1999/02/22-rdf-syntax-ns#"
   xmlns:svg="http://www.w3.org/2000/svg"
   xmlns="http://www.w3.org/2000/svg"
   id="svg8"
   version="1.1"
   viewBox="0 0 52.916665 52.916669"
   height="200"
   width="200">
  <defs
     id="defs2" />
  <metadata
     id="metadata5">
    <rdf:RDF>
      <cc:Work
         rdf:about="">
        <dc:format>image/svg+xml</dc:format>
        <dc:type
           rdf:resource="http://purl.org/dc/dcmitype/StillImage" />
        <dc:title></dc:title>
      </cc:Work>
    </rdf:RDF>
  </metadata>
  <g
     transform="translate(0,-244.0833)"
     id="layer1">
    <path
       id="rect4932"
       d="m 0,293.97845 c 17.550563,-9.8689 35.187851,-10.04761 52.916664,0 v 3.02152 H 0 Z"
       style="fill:#ffffff;fill-opacity:1;stroke-width:0;stroke-linecap:butt;stroke-linejoin:round;stroke-miterlimit:4;stroke-dasharray:none" />
    <path
       id="path4935"
       transform="matrix(0.26458333,0,0,0.26458333,0,244.0833)"
       d="M 40.40625 0 L 40.40625 26.759766 C 40.40625 26.759766 59.851562 75.00383 59.851562 100 C 59.851562 116.43686 51.288854 144.75462 45.380859 162.38672 C 61.085643 158.00851 77.466331 155.63639 93.373047 154.47656 C 95.584547 154.39001 97.796181 154.34759 100.00586 154.3457 C 102.21554 154.34759 104.42717 154.39001 106.63867 154.47656 C 122.54539 155.63639 138.92608 158.00851 154.63086 162.38672 C 148.72286 144.75462 140.16016 116.43686 140.16016 100 C 140.16016 75.00383 159.60547 26.759766 159.60547 26.759766 L 159.60547 0 L 132.58398 0 L 132.58398 26.759766 L 113.51562 26.759766 L 113.51562 0 L 86.494141 0 L 86.494141 26.759766 L 67.427734 26.759766 L 67.427734 0 L 40.40625 0 z "
       style="fill:#ffffff;stroke:#000000;stroke-width:0;stroke-linecap:butt;stroke-linejoin:miter;stroke-miterlimit:4;stroke-dasharray:none;stroke-opacity:1" />
  </g>
</svg>
